<svg width="131" height="21" viewBox="0 0 131 21" fill="none" xmlns="http://www.w3.org/2000/svg">
<path d="M13.936 20V15.996H11.882V17.946H4.524V3.854H6.682V1.8H0.91V3.854H2.366V17.946H0.91V20H13.936ZM28.1655 20V17.946H26.1895V10.25H24.3955C24.3955 10.458 24.3782 10.6747 24.3435 10.9C24.3262 11.108 24.3088 11.2987 24.2915 11.472C24.1528 11.1773 23.8062 10.8653 23.2515 10.536C22.6968 10.1893 21.9428 10.016 20.9895 10.016C20.2615 10.016 19.5768 10.1547 18.9355 10.432C18.2942 10.7093 17.7395 11.082 17.2715 11.55C16.8035 12.018 16.4308 12.564 16.1535 13.188C15.8935 13.812 15.7635 14.462 15.7635 15.138C15.7635 15.8313 15.8935 16.49 16.1535 17.114C16.4308 17.7207 16.8035 18.258 17.2715 18.726C17.7395 19.194 18.2942 19.5667 18.9355 19.844C19.5768 20.104 20.2615 20.234 20.9895 20.234C21.4922 20.234 21.9428 20.1733 22.3415 20.052C22.7402 19.948 23.0868 19.818 23.3815 19.662C23.6588 19.5233 23.8755 19.3847 24.0315 19.246C24.1875 19.1073 24.2742 19.012 24.2915 18.96C24.2915 19.0813 24.2915 19.168 24.2915 19.22C24.2915 19.272 24.2915 19.3587 24.2915 19.48V20H28.1655ZM20.9895 12.122C21.4228 12.122 21.8128 12.1913 22.1595 12.33C22.5235 12.4687 22.8442 12.6593 23.1215 12.902C23.3988 13.162 23.6155 13.4827 23.7715 13.864C23.9448 14.2453 24.0315 14.6613 24.0315 15.112C24.0315 15.5627 23.9448 15.9787 23.7715 16.36C23.6155 16.7413 23.3902 17.0707 23.0955 17.348C22.8355 17.5907 22.5235 17.7813 22.1595 17.92C21.8128 18.0587 21.4228 18.128 20.9895 18.128C20.6082 18.128 20.2528 18.076 19.9235 17.972C19.5942 17.8507 19.3082 17.6947 19.0655 17.504C18.7188 17.2267 18.4415 16.88 18.2335 16.464C18.0428 16.048 17.9475 15.5973 17.9475 15.112C17.9475 14.696 18.0082 14.3147 18.1295 13.968C18.2682 13.6213 18.4588 13.318 18.7015 13.058C18.9615 12.7633 19.2908 12.538 19.6895 12.382C20.0882 12.2087 20.5215 12.122 20.9895 12.122ZM44.0432 19.038C44.2859 18.7087 44.4505 18.3707 44.5372 18.024C44.6412 17.6773 44.6932 17.3827 44.6932 17.14C44.6932 16.6027 44.5979 16.1607 44.4072 15.814C44.2165 15.45 43.9739 15.1467 43.6792 14.904C43.3845 14.6787 43.0639 14.488 42.7172 14.332C42.3705 14.176 42.0499 14.0373 41.7552 13.916C41.4432 13.7947 41.1745 13.6733 40.9492 13.552C40.7239 13.4133 40.5939 13.24 40.5592 13.032C40.5419 12.8933 40.5505 12.772 40.5852 12.668C40.6199 12.5467 40.6805 12.4427 40.7672 12.356C40.8539 12.2867 40.9665 12.2347 41.1052 12.2C41.2439 12.148 41.4085 12.122 41.5992 12.122C41.7379 12.122 41.8679 12.1393 41.9892 12.174C42.1105 12.1913 42.2405 12.2173 42.3792 12.252V13.37H44.3032V11.108C44.1125 10.9 43.8872 10.7267 43.6272 10.588C43.3845 10.4493 43.1332 10.3367 42.8732 10.25C42.6132 10.1633 42.3532 10.1027 42.0932 10.068C41.8505 10.0333 41.6425 10.016 41.4692 10.016C41.1745 10.016 40.8452 10.068 40.4812 10.172C40.1172 10.276 39.7792 10.4493 39.4672 10.692C39.1552 10.9173 38.8952 11.212 38.6872 11.576C38.4792 11.94 38.3752 12.3907 38.3752 12.928C38.3752 13.5347 38.4792 14.02 38.6872 14.384C38.8952 14.748 39.1552 15.0253 39.4672 15.216C39.7965 15.424 40.1432 15.5887 40.5072 15.71C40.8712 15.814 41.2005 15.9267 41.4952 16.048C41.8072 16.152 42.0499 16.2907 42.2232 16.464C42.4139 16.62 42.5092 16.854 42.5092 17.166C42.5092 17.3393 42.4745 17.4867 42.4052 17.608C42.3532 17.712 42.2839 17.7987 42.1972 17.868C42.0759 17.9547 41.9372 18.0153 41.7812 18.05C41.6425 18.0847 41.5039 18.102 41.3652 18.102C41.0705 18.102 40.8192 18.0933 40.6112 18.076C40.4205 18.0413 40.2212 17.9807 40.0132 17.894V16.88H38.0892V19.142C38.4359 19.5233 38.9039 19.8007 39.4932 19.974C40.0825 20.13 40.6979 20.208 41.3392 20.208C42.0325 20.208 42.5959 20.0953 43.0292 19.87C43.4625 19.6447 43.8005 19.3673 44.0432 19.038ZM55.328 18.726C55.796 18.258 56.16 17.7207 56.42 17.114C56.6973 16.49 56.836 15.8227 56.836 15.112C56.836 14.4187 56.6973 13.76 56.42 13.136C56.16 12.512 55.796 11.966 55.328 11.498C54.86 11.0473 54.3053 10.692 53.664 10.432C53.0227 10.1547 52.338 10.016 51.61 10.016C50.882 10.016 50.1973 10.1547 49.556 10.432C48.932 10.692 48.386 11.0473 47.918 11.498C47.45 11.966 47.0773 12.512 46.8 13.136C46.54 13.76 46.41 14.4187 46.41 15.112C46.41 15.84 46.54 16.5073 46.8 17.114C47.0773 17.7207 47.45 18.258 47.918 18.726C48.386 19.194 48.932 19.5667 49.556 19.844C50.1973 20.104 50.882 20.234 51.61 20.234C52.338 20.234 53.0227 20.104 53.664 19.844C54.3053 19.5667 54.86 19.194 55.328 18.726ZM49.452 17.244C49.1747 16.984 48.958 16.672 48.802 16.308C48.646 15.944 48.568 15.554 48.568 15.138C48.568 14.722 48.646 14.332 48.802 13.968C48.958 13.604 49.1747 13.2833 49.452 13.006C49.712 12.7287 50.024 12.512 50.388 12.356C50.752 12.2 51.142 12.122 51.558 12.122C51.974 12.122 52.364 12.2 52.728 12.356C53.092 12.512 53.4127 12.7287 53.69 13.006C53.9673 13.2833 54.184 13.604 54.34 13.968C54.496 14.332 54.574 14.722 54.574 15.138C54.574 15.554 54.496 15.944 54.34 16.308C54.184 16.672 53.9673 16.984 53.69 17.244C53.4127 17.5213 53.092 17.738 52.728 17.894C52.364 18.05 51.974 18.128 51.558 18.128C51.142 18.128 50.752 18.05 50.388 17.894C50.024 17.738 49.712 17.5213 49.452 17.244ZM64.4203 20V17.946H62.3663V12.356H65.4343V10.25H62.3663V6.636C62.3663 5.97733 62.4703 5.39667 62.6783 4.894C62.8863 4.39133 63.1809 3.96667 63.5623 3.62C63.9263 3.29067 64.3509 3.03933 64.8363 2.866C65.3389 2.67533 65.8849 2.56267 66.4743 2.528V0.473999C65.5903 0.508666 64.7583 0.664666 63.9783 0.941999C63.2156 1.202 62.5569 1.592 62.0023 2.112C61.4476 2.61467 61.0056 3.23867 60.6763 3.984C60.3643 4.72933 60.2083 5.58733 60.2083 6.558V10.25H58.6483V12.356H60.2343V17.946H58.6483V20H64.4203ZM73.1547 20V17.946H71.1007V12.356H74.1687V10.25H71.1007V6.636C71.1007 5.97733 71.2047 5.39667 71.4127 4.894C71.6207 4.39133 71.9153 3.96667 72.2967 3.62C72.6607 3.29067 73.0853 3.03933 73.5707 2.866C74.0733 2.67533 74.6193 2.56267 75.2087 2.528V0.473999C74.3247 0.508666 73.4927 0.664666 72.7127 0.941999C71.95 1.202 71.2913 1.592 70.7367 2.112C70.182 2.61467 69.74 3.23867 69.4107 3.984C69.0987 4.72933 68.9427 5.58733 68.9427 6.558V10.25H67.3827V12.356H68.9687V17.946H67.3827V20H73.1547ZM81.889 20V17.946H80.095V10.25H76.117V12.304H77.937V17.946H76.117V20H81.889ZM80.381 6.48C80.381 6.08133 80.2424 5.752 79.965 5.492C79.6877 5.232 79.3844 5.102 79.055 5.102C78.7084 5.102 78.3964 5.232 78.119 5.492C77.8417 5.752 77.703 6.08133 77.703 6.48C77.703 6.87867 77.8417 7.208 78.119 7.468C78.3964 7.71067 78.7084 7.832 79.055 7.832C79.3844 7.832 79.6877 7.71067 79.965 7.468C80.2424 7.208 80.381 6.87867 80.381 6.48ZM96.1108 20V17.946H94.1348V10.25H92.3408C92.3408 10.458 92.3235 10.6747 92.2888 10.9C92.2715 11.108 92.2542 11.2987 92.2368 11.472C92.0982 11.1773 91.7515 10.8653 91.1968 10.536C90.6422 10.1893 89.8882 10.016 88.9348 10.016C88.2068 10.016 87.5222 10.1547 86.8808 10.432C86.2395 10.7093 85.6848 11.082 85.2168 11.55C84.7488 12.018 84.3762 12.564 84.0988 13.188C83.8388 13.812 83.7088 14.462 83.7088 15.138C83.7088 15.8313 83.8388 16.49 84.0988 17.114C84.3762 17.7207 84.7488 18.258 85.2168 18.726C85.6848 19.194 86.2395 19.5667 86.8808 19.844C87.5222 20.104 88.2068 20.234 88.9348 20.234C89.4375 20.234 89.8882 20.1733 90.2868 20.052C90.6855 19.948 91.0322 19.818 91.3268 19.662C91.6042 19.5233 91.8208 19.3847 91.9768 19.246C92.1328 19.1073 92.2195 19.012 92.2368 18.96C92.2368 19.0813 92.2368 19.168 92.2368 19.22C92.2368 19.272 92.2368 19.3587 92.2368 19.48V20H96.1108ZM88.9348 12.122C89.3682 12.122 89.7582 12.1913 90.1048 12.33C90.4688 12.4687 90.7895 12.6593 91.0668 12.902C91.3442 13.162 91.5608 13.4827 91.7168 13.864C91.8902 14.2453 91.9768 14.6613 91.9768 15.112C91.9768 15.5627 91.8902 15.9787 91.7168 16.36C91.5608 16.7413 91.3355 17.0707 91.0408 17.348C90.7808 17.5907 90.4688 17.7813 90.1048 17.92C89.7582 18.0587 89.3682 18.128 88.9348 18.128C88.5535 18.128 88.1982 18.076 87.8688 17.972C87.5395 17.8507 87.2535 17.6947 87.0108 17.504C86.6642 17.2267 86.3868 16.88 86.1788 16.464C85.9882 16.048 85.8928 15.5973 85.8928 15.112C85.8928 14.696 85.9535 14.3147 86.0748 13.968C86.2135 13.6213 86.4042 13.318 86.6468 13.058C86.9068 12.7633 87.2362 12.538 87.6348 12.382C88.0335 12.2087 88.4668 12.122 88.9348 12.122ZM104.22 20V17.946H102.27V12.356H104.818V10.25H102.27V3.906H100.112V10.25H97.9276V12.356H100.112V20H104.22ZM119.039 20V17.946H117.063V10.25H115.269C115.269 10.458 115.251 10.6747 115.217 10.9C115.199 11.108 115.182 11.2987 115.165 11.472C115.026 11.1773 114.679 10.8653 114.125 10.536C113.57 10.1893 112.816 10.016 111.863 10.016C111.135 10.016 110.45 10.1547 109.809 10.432C109.167 10.7093 108.613 11.082 108.145 11.55C107.677 12.018 107.304 12.564 107.027 13.188C106.767 13.812 106.637 14.462 106.637 15.138C106.637 15.8313 106.767 16.49 107.027 17.114C107.304 17.7207 107.677 18.258 108.145 18.726C108.613 19.194 109.167 19.5667 109.809 19.844C110.45 20.104 111.135 20.234 111.863 20.234C112.365 20.234 112.816 20.1733 113.215 20.052C113.613 19.948 113.96 19.818 114.255 19.662C114.532 19.5233 114.749 19.3847 114.905 19.246C115.061 19.1073 115.147 19.012 115.165 18.96C115.165 19.0813 115.165 19.168 115.165 19.22C115.165 19.272 115.165 19.3587 115.165 19.48V20H119.039ZM111.863 12.122C112.296 12.122 112.686 12.1913 113.033 12.33C113.397 12.4687 113.717 12.6593 113.995 12.902C114.272 13.162 114.489 13.4827 114.645 13.864C114.818 14.2453 114.905 14.6613 114.905 15.112C114.905 15.5627 114.818 15.9787 114.645 16.36C114.489 16.7413 114.263 17.0707 113.969 17.348C113.709 17.5907 113.397 17.7813 113.033 17.92C112.686 18.0587 112.296 18.128 111.863 18.128C111.481 18.128 111.126 18.076 110.797 17.972C110.467 17.8507 110.181 17.6947 109.939 17.504C109.592 17.2267 109.315 16.88 109.107 16.464C108.916 16.048 108.821 15.5973 108.821 15.112C108.821 14.696 108.881 14.3147 109.003 13.968C109.141 13.6213 109.332 13.318 109.575 13.058C109.835 12.7633 110.164 12.538 110.563 12.382C110.961 12.2087 111.395 12.122 111.863 12.122ZM129.365 6.74L129.685 6.88L127.545 9.78L125.405 6.88L125.705 6.76V11.04H125.085V5.64L127.605 8.86H127.485L130.025 5.64V11.04H129.365V6.74ZM120.885 5.86H124.145V6.46H122.845V11.04H122.165V6.46H120.885V5.86Z" fill="#FFF9F2"/>
</svg>
